# xmcd
#
# Track frame offsets:
#	150
#	17787
#	34232
#	47182
#	66642
#	81140
#	97522
#	118497
#	136927
#	154482
#	188715
#	199775
#	216907
#	232890
#	248897
#	263602
#	278297
#	293700
#	308872
#
# Disc length: 4334 seconds
# Revision: 0
# Processed by: cddbd v1.5.2PL0 Copyright (c) Steve Scherf et al.
# Submitted via: dBpowerAMP V12.0
#
DISCID=1010ec13
DTITLE=Various Artist - Love Hurts
DYEAR=1900
DGENRE=Blues
TTITLE0=Nazareth - Love Hurts
TTITLE1=Chris Farlowe - Out Of Time
TTITLE2=Fleetwood Mac - Man Of The World
TTITLE3=Humble Pie - Natural Born Boogie
TTITLE4=The Moody Blues - Go Now
TTITLE5=Family - In My Own Time
TTITLE6=Melanie - Ruby Tuesday
TTITLE7=Jonathan Richman and The Modern Lovers - Roadrunner
TTITLE8=The Greg Kihn Band - Jeopardy
TTITLE9=Gary Moore - Parisienne Walkways
TTITLE10=Jim Croce - Time In A Bottle
TTITLE11=Jim Croce - Operator  ( That's Not The Way It Feels )
TTITLE12=Stretch - Why Did You Do It
TTITLE13=Colin Blunstone - Say You Don't Mind
TTITLE14=Colin Blunstone - What becomes Of The Broken Hearted
TTITLE15=P.P. Arnold - Angel Of The Morning
TTITLE16=The Greg Kihn Band - Love Never Fails
TTITLE17=Nazareth - This Flight Tonight
TTITLE18=Gary Moore - Don't Let Me Be Misunderstood
EXTD=
EXTT0=
EXTT1=
EXTT2=
EXTT3=
EXTT4=
EXTT5=
EXTT6=
EXTT7=
EXTT8=
EXTT9=
EXTT10=
EXTT11=
EXTT12=
EXTT13=
EXTT14=
EXTT15=
EXTT16=
EXTT17=
EXTT18=
PLAYORDER=
